# xmcd
#
# Track frame offsets: 
#        150
#        29526
#        47379
#        69440
#        89107
#        107478
#        125722
#        149495
#        167653
#        188281
#        207114
#        234821
#        252106
#        273004
#        290470
#        319659
#        336482
#
# Disc length: 4770 seconds
#
# Revision: 3
# Processed by: cddbd v1.5.2PL0 Copyright (c) Steve Scherf et al.
# Submitted via: ExactAudioCopy v1.3
#
DISCID=ef12a011
DTITLE=Chris Rea - The Best
DYEAR=2018
DGENRE=Blues
TTITLE0=The Road To Hell (Part 1 and 2)
TTITLE1=Josephine
TTITLE2=On The Beach
TTITLE3=Stainsby Girls
TTITLE4=Let's Dance
TTITLE5=Fool (If You Think It's Over)
TTITLE6=Girl In A Sports Car
TTITLE7=I Will Be With You
TTITLE8=Steel River Blues
TTITLE9=Legacy Blues
TTITLE10=Are You Ready
TTITLE11=Keep On Dancing
TTITLE12=Changing Times (Live At Montreux)
TTITLE13=Dancing The Blues Away (Live At Montreux)
TTITLE14=Stony Road (Live At Montreux)
TTITLE15=Someday My Peace Will Come (Live At Montreux)
TTITLE16=The Hustler (Live At Montreux)
EXTD=YEAR: 2018
EXTT0=
EXTT1=
EXTT2=
EXTT3=
EXTT4=
EXTT5=
EXTT6=
EXTT7=
EXTT8=
EXTT9=
EXTT10=
EXTT11=
EXTT12=
EXTT13=
EXTT14=
EXTT15=
EXTT16=
PLAYORDER=
